<?xml version="1.0" standalone="no"?><!DOCTYPE svg PUBLIC "-//W3C//DTD SVG 1.1//EN" "http://www.w3.org/Graphics/SVG/1.1/DTD/svg11.dtd"><svg t="1606456508127" class="icon" viewBox="0 0 1024 1024" version="1.1" xmlns="http://www.w3.org/2000/svg" p-id="6415" xmlns:xlink="http://www.w3.org/1999/xlink" width="32" height="32"><defs><style type="text/css"></style></defs><path d="M512 1024A512 512 0 1 1 1024 512 512.910222 512.910222 0 0 1 512 1024z m0-955.733333A443.733333 443.733333 0 1 0 955.733333 512a444.188444 444.188444 0 0 0-443.733333-443.733333z" fill="#e54141" p-id="6416"></path><path d="M512 699.960889a34.588444 34.588444 0 0 1-34.133333-34.133333v-62.805334a38.684444 38.684444 0 0 1 10.012444-25.941333 36.408889 36.408889 0 0 1 24.120889-12.288 120.604444 120.604444 0 0 0 58.709333-14.563556 125.155556 125.155556 0 1 0-182.044444-110.136889 34.133333 34.133333 0 0 1-34.133333 33.678223 33.678222 33.678222 0 0 1-35.953778-34.133334 193.422222 193.422222 0 1 1 227.555555 190.691556v35.498667a34.588444 34.588444 0 0 1-34.133333 34.133333zM512 775.964444a32.768 32.768 0 0 1-34.133333-32.312888v-3.185778a34.133333 34.133333 0 0 1 68.266666 0 35.498667 35.498667 0 0 1-34.133333 35.498666z" fill="#e54141" p-id="6417"></path></svg>