<?xml version="1.0" standalone="no"?><!DOCTYPE svg PUBLIC "-//W3C//DTD SVG 1.1//EN" "http://www.w3.org/Graphics/SVG/1.1/DTD/svg11.dtd"><svg t="1606378582626" class="icon" viewBox="0 0 1056 1024" version="1.1" xmlns="http://www.w3.org/2000/svg" p-id="5465" xmlns:xlink="http://www.w3.org/1999/xlink" width="66" height="64"><defs><style type="text/css"></style></defs><path d="M956.232766 993.6543c-4.342613-3.323976 1.07225 1.179475 0 0z" p-id="5466"></path><path d="M1030.16442 928.247035l-110.817062-99.933723a549.581862 549.581862 0 0 0 96.985034-316.313821A510.123053 510.123053 0 0 0 867.504059 150.115034a505.351539 505.351539 0 0 0-718.407663 0 514.680116 514.680116 0 0 0 0 723.768913 502.402851 502.402851 0 0 0 359.203831 150.115034c105.938324 0 234.286678-25.358718 341.082802-122.987102l97.30671 84.064419c6.701564 5.843764 9.114127 8.041877 9.703865 8.631614l10.239989 8.149102c27.395994 21.927517 58.169576 21.445005 78.649556 0 22.946155-24.608143 5.790151-52.915549-15.118729-73.609979z m-522.02503 27.824894c-242.703842 0-440.158724-199.277708-440.158725-444.018826s197.454882-444.018825 440.319562-444.018825 440.158724 199.11687 440.158725 444.018825-197.562107 444.018825-440.319562 444.018826z" p-id="5467"></path><path d="M477.151358 437.263649l-98.486185 103.364923c-8.041877 8.417164-21.12333 8.470777-32.65002-2.519788-10.23999-9.757477-14.046478-23.857568-6.004601-32.167507l151.884247-159.711674c8.041877-8.417164 24.661756-9.650252 32.86447-1.822825l155.476285 148.131371c8.202714 7.773814 5.736539 23.106993-3.163139 32.167507-11.365853 11.95559-25.412331 13.617578-33.668657 5.790151l-105.348586-100.630685-2.519789 221.366063c-1.07225 12.759778-6.219051 29.111594-25.734005 32.167507a31.738607 31.738607 0 0 1-31.57777-31.684995z" p-id="5468"></path><path d="M290.633428 767.302273l34.58007-48.787386a278.034488 278.034488 0 0 1 319.26251-450.827614l34.58007-48.733774a337.437151 337.437151 0 0 0-388.42265 548.348774zM739.852667 263.666335l-34.740908 49.055448a278.034488 278.034488 0 0 1-317.439684 448.039764l-34.740908 49.055448A337.490764 337.490764 0 0 0 739.852667 263.666335z" p-id="5469"></path></svg>