<?xml version="1.0" standalone="no"?><!DOCTYPE svg PUBLIC "-//W3C//DTD SVG 1.1//EN" "http://www.w3.org/Graphics/SVG/1.1/DTD/svg11.dtd"><svg t="1606377317837" class="icon" viewBox="0 0 1024 1024" version="1.1" xmlns="http://www.w3.org/2000/svg" p-id="4720" xmlns:xlink="http://www.w3.org/1999/xlink" width="64" height="64"><defs><style type="text/css"></style></defs><path d="M876.264325 0 149.991181 0C80.070475 0 16.916289 58.643173 16.916289 128.563879l0 766.872264c0 67.6652 56.387666 128.563879 133.074893 128.563879l726.273144 0c72.176213 0 133.074893-56.387666 133.074893-128.563879l0-766.872264C1009.339218 65.409693 934.907498 0 876.264325 0L876.264325 0zM943.929525 895.436143c0 36.088107-29.321587 63.154186-65.409693 63.154186L159.013208 958.590329c-36.088107 0-65.409693-29.321587-65.409693-63.154186L93.603515 135.330399c0-36.088107 29.321587-65.409693 65.409693-65.409693l124.052866 0L283.066074 518.766531l133.074893-128.563879 133.074893 128.563879L549.21586 69.920706l331.559479 0c36.088107 0 65.409693 29.321587 65.409693 63.154186L946.185032 895.436143 943.929525 895.436143z" p-id="4721"></path></svg>