<svg id="icons" xmlns="http://www.w3.org/2000/svg" viewBox="0 0 50 50"><defs><style>.cls-1{fill:none;stroke:#666;stroke-linecap:round;stroke-linejoin:round;stroke-width:1.5px;}</style></defs><title>0189_lenght-and-vertical-rise</title><path class="cls-1" d="M11.52,12.11,9.35,14.28m2.17,2.17L9.35,14.28m22.87,2.17,2.17-2.17m-2.17-2.17,2.17,2.17m4.19,18.9,2.17,2.17m2.16-2.17-2.16,2.17m2.16-11.24L40.74,22m-2.16,2.16L40.74,22"/><path class="cls-1" d="M31.74,19.48H27.56a3.21,3.21,0,0,0-1.73.54l-8.55,7.27A5,5,0,0,1,13.66,29h-2.1a4.45,4.45,0,0,0,.19,8.89h4.33a2.62,2.62,0,0,0,1.66-.58l9.83-8.16a5.44,5.44,0,0,1,2.81-.79h1A4.53,4.53,0,0,0,36,23.78,4.27,4.27,0,0,0,31.74,19.48Z"/><path class="cls-1" d="M7,26.9V12.11m29.65,4.51V12.11m1.84,7.37H43M22,37.89H42.55"/></svg>