<svg id="icons" xmlns="http://www.w3.org/2000/svg" viewBox="0 0 50 50"><defs><style>.cls-1{fill:none;stroke:#3f51b5;stroke-linecap:round;stroke-linejoin:round;stroke-width:1.5px;}</style></defs><path class="cls-1" d="M30,32a4.8,4.8,0,0,1-.53-.68A5.89,5.89,0,0,1,28.64,28c0-2,1.13-1.34,1.81-5,.28-1.52,1.65,0,1.91-3.49,0-1.38-.74-1.72-.74-1.72C31.88,16.43,33,6.06,23.77,6.06c-7.75,0-8.7,6.6-8.2,9.67.17,1.13.35,2.11.35,2.11s-.75.34-.75,1.72c.27,3.46,1.64,2,1.92,3.49.67,3.65,1.81,3,1.81,5,0,3.32-1.21,4.87-6.27,6.71s-5.92,3.72-5.92,5v4.31H28.19"/><path class="cls-1" d="M15.57,14.87A31.78,31.78,0,0,0,24,15.7a38.65,38.65,0,0,0,7.57-.63m-1.69.28c0,1.55-2.8,2.81-6.25,2.81s-6.25-1.26-6.25-2.81"/><path class="cls-1" d="M39.27,39a2.69,2.69,0,1,1-2.69-2.73A2.72,2.72,0,0,1,39.27,39Zm2.57,0a5.49,5.49,0,0,0-.1-1.08l1.55-.91-1.65-2.93L40.07,35A5.13,5.13,0,0,0,38.24,34V32.13H34.92V34A5.22,5.22,0,0,0,33.09,35l-1.56-.92-1.66,2.93,1.56.91a5.36,5.36,0,0,0,0,2.16L29.87,41,31.53,44l1.56-.91a5.54,5.54,0,0,0,1.83,1.08V46h3.32V44.13A5.3,5.3,0,0,0,40.07,43l1.57.92L43.29,41l-1.55-.92A5.49,5.49,0,0,0,41.84,39Z"/></svg>